<?xml version="1.0" encoding="UTF-8" standalone="no"?>
<!-- Created with Inkscape (http://www.inkscape.org/) -->

<svg
   width="16"
   height="16"
   viewBox="0 0 16 16"
   version="1.1"
   id="svg1"
   xml:space="preserve"
   inkscape:version="1.4.2 (f4327f4, 2025-05-13)"
   sodipodi:docname="lime-planet.svg"
   xmlns:inkscape="http://www.inkscape.org/namespaces/inkscape"
   xmlns:sodipodi="http://sodipodi.sourceforge.net/DTD/sodipodi-0.dtd"
   xmlns="http://www.w3.org/2000/svg"
   xmlns:svg="http://www.w3.org/2000/svg"><sodipodi:namedview
     id="namedview1"
     pagecolor="#ffffff"
     bordercolor="#000000"
     borderopacity="0.25"
     inkscape:showpageshadow="2"
     inkscape:pageopacity="0.0"
     inkscape:pagecheckerboard="0"
     inkscape:deskcolor="#d1d1d1"
     inkscape:document-units="px"
     inkscape:zoom="50.5"
     inkscape:cx="7.7326733"
     inkscape:cy="7.7029703"
     inkscape:window-width="1920"
     inkscape:window-height="1010"
     inkscape:window-x="1433"
     inkscape:window-y="-6"
     inkscape:window-maximized="1"
     inkscape:current-layer="layer1" /><defs
     id="defs1"><rect
       x="0.099009901"
       y="0.13861386"
       width="15.821782"
       height="15.821782"
       id="rect1" /></defs><g
     inkscape:label="Layer 1"
     inkscape:groupmode="layer"
     id="layer1"><text
       xml:space="preserve"
       id="text1"
       style="fill:#000000;text-orientation:auto;text-align:start;writing-mode:lr-tb;direction:ltr;white-space:pre;shape-inside:url(#rect1)" /><g
       style="color:#dfe5e1;fill:none;stroke-width:1.5"
       id="g2"
       transform="matrix(0.73644084,0,0,0.90560272,-0.70981348,-2.7880239)"><circle
         cx="12"
         cy="12"
         r="8"
         stroke="#dfe5e1"
         stroke-width="1.5"
         id="circle1" /><path
         d="m 17.4995,6.34835 c 2.298,-0.53868 3.9452,-0.47627 4.3381,0.31167 0.731,1.46614 -3.1579,4.88908 -8.6861,7.64528 -5.52823,2.7563 -10.6023,3.8021 -11.33329,2.336 -0.39191,-0.786 0.54413,-2.1346 2.3488,-3.6412"
         stroke="#dfe5e1"
         stroke-width="1.5"
         id="path1" /></g><path
       style="fill:#00ff00;stroke-width:0.019802"
       d="M 7.6930693,15.976809 C 6.5224638,15.859387 5.5566119,15.45835 4.5841584,14.685939 4.2386101,14.411473 3.6633174,13.808046 3.3831533,13.426199 l -0.036619,-0.04991 -0.2490028,0.04882 C 2.6299695,13.516784 2.3800978,13.542285 1.950495,13.542175 1.4881331,13.542056 1.259143,13.506068 0.96799305,13.387767 0.48469735,13.191391 0.16538516,12.807064 0.05946011,12.294248 0.01625528,12.08508 0.02077813,11.713382 0.06943333,11.474627 0.20993154,10.785191 0.6833083,9.9713749 1.479195,9.051005 L 1.7005058,8.7950792 1.7039337,8.0807079 C 1.7073697,7.3646592 1.7211747,7.1588782 1.8016741,6.6237624 2.2887461,3.385975 4.4069705,0.82201455 7.0435529,0.27883911 8.067481,0.06789463 9.1109117,0.15717452 10.079208,0.53858127 c 0.783223,0.30850748 1.440447,0.74577413 2.09723,1.39533773 0.151496,0.149831 0.280704,0.2691986 0.287129,0.2652614 0.0162,-0.00993 0.557617,-0.121896 0.714651,-0.1477927 1.030786,-0.169989 1.796918,-0.059551 2.264933,0.3264891 0.526494,0.4342765 0.674015,1.2116648 0.387443,2.0416957 -0.193788,0.5612885 -0.684602,1.3410414 -1.2613,2.0038198 -0.112264,0.1290206 -0.125869,0.1534081 -0.115995,0.2079208 0.0062,0.033966 0.02463,0.1731423 0.04107,0.309281 0.216864,1.7961629 -0.08814,3.6545229 -0.856151,5.2164199 -0.396495,0.806348 -0.850459,1.450381 -1.439911,2.042782 -0.519676,0.522275 -1.071925,0.926097 -1.662716,1.215831 -0.6428556,0.315266 -1.2349912,0.48714 -1.9089781,0.554099 -0.1894397,0.01882 -0.7724349,0.02324 -0.9335456,0.0071 z m 0.7722772,-1.342095 c 1.108104,-0.0543 2.3373885,-0.677498 3.1952045,-1.619831 0.676705,-0.743379 1.2189,-1.727126 1.506302,-2.733 0.206846,-0.723938 0.310525,-1.4861757 0.30634,-2.25218 -0.0027,-0.4853917 0.0064,-0.4710444 -0.186415,-0.2939711 -2.29201,2.1043849 -5.6337592,4.1656731 -8.360875,5.1572301 -0.1768921,0.06432 -0.3216941,0.122457 -0.3217822,0.129202 -8.83e-5,0.0067 0.095707,0.104765 0.2128788,0.217822 0.7619147,0.735161 1.6273816,1.186263 2.598842,1.354577 0.1975327,0.03422 0.627498,0.06585 0.7623762,0.05608 0.043564,-0.0032 0.1727723,-0.01032 0.2871287,-0.01593 z M 2.3762376,12.185695 c 0.119802,-0.01228 0.220921,-0.02506 0.2247087,-0.02839 0.00379,-0.0033 -0.035278,-0.09801 -0.086812,-0.210394 C 2.3243911,11.533127 2.1466636,11.040499 2.0229139,10.585337 L 1.9559369,10.338992 1.777672,10.578003 c -0.3989629,0.534915 -0.6531382,1.038166 -0.664629,1.315923 -0.00371,0.08958 0.002,0.1048 0.055273,0.147452 0.068186,0.05459 0.247457,0.118237 0.4059406,0.144124 0.1582909,0.02585 0.5507848,0.02595 0.801981,1.93e-4 z M 4.2151927,11.748898 C 6.430865,11.012299 9.2821016,9.4038598 11.472872,7.6546968 12.050054,7.1938612 12.717258,6.6058618 13.076715,6.2412475 L 13.222737,6.0931307 13.197802,5.9871594 C 13.184088,5.9288752 13.133449,5.761305 13.085271,5.6147814 12.748008,4.5890568 12.212093,3.6981715 11.505436,2.9885204 10.657855,2.1373483 9.6810861,1.652149 8.5588665,1.5248446 8.3782364,1.5043539 7.8203859,1.510383 7.6138614,1.535058 6.471645,1.6715268 5.3738061,2.2701333 4.5295479,3.2168075 3.600064,4.2590459 3.0224461,5.6041671 2.8284513,7.1782178 c -0.050031,0.4059452 -0.050031,1.3960351 0,1.8019802 0.1158612,0.9400826 0.3446859,1.7289 0.7266507,2.504951 0.075047,0.152475 0.154254,0.305814 0.1760158,0.340753 l 0.039567,0.06353 0.1021275,-0.03033 c 0.05617,-0.01668 0.2102414,-0.06627 0.3423806,-0.110201 z M 14.187672,5.0041782 C 14.535663,4.5327453 14.791136,4.0655517 14.865252,3.7650568 14.916993,3.555281 14.903844,3.5140701 14.762236,3.4422018 14.606254,3.363038 14.451473,3.333477 14.138614,3.323098 c -0.268481,-0.00891 -0.784728,0.029287 -0.815796,0.060355 -0.0052,0.00524 0.02587,0.070361 0.06913,0.144718 0.204694,0.3518556 0.46497,0.9188544 0.627908,1.3678687 0.04051,0.1116337 0.07935,0.2026228 0.08631,0.202198 0.007,-4.247e-4 0.04364,-0.042751 0.08151,-0.094059 z"
       id="path2" /><path
       style="fill:#000000;stroke-width:0.019802"
       d="M 3.6575353,11.64985 C 3.2299676,10.843447 2.9473907,9.8988721 2.8381542,8.9108911 c -0.034871,-0.3153905 -0.034871,-1.3479759 0,-1.6633663 C 3.0265281,5.5437917 3.7059648,4.051857 4.7815224,2.980198 5.5845087,2.1801221 6.5583093,1.6877518 7.6039604,1.5531248 7.8731628,1.5184651 8.4342782,1.5232419 8.7128713,1.562565 10.200102,1.7724857 11.519052,2.7072089 12.414687,4.1859943 12.577129,4.4542022 12.8,4.9075832 12.926924,5.228024 c 0.107776,0.2720992 0.271088,0.7803267 0.271093,0.8436451 4e-6,0.047125 -0.563157,0.5827778 -1.079205,1.0264899 -2.1786187,1.8732362 -5.1753548,3.655999 -7.6217808,4.534208 -0.1778466,0.06384 -0.4003914,0.139574 -0.4945439,0.168293 -0.094153,0.02872 -0.183548,0.05696 -0.1986566,0.06276 -0.019013,0.0073 -0.064054,-0.05846 -0.1462954,-0.213566 z"
       id="path3" /><path
       style="fill:#000000;stroke-width:0.019802"
       d="M 7.7850697,14.622052 C 7.1195889,14.571702 6.3755842,14.328129 5.7832081,13.966681 5.4329653,13.752975 4.9226234,13.345848 4.6766542,13.083924 l -0.056019,-0.05965 0.085722,-0.03129 C 6.1961396,12.4492 7.5119739,11.812456 9.019802,10.905666 c 1.610199,-0.9683545 2.868617,-1.8974142 4.316981,-3.1871234 0.05154,-0.045891 0.09932,-0.077821 0.106182,-0.070957 0.02011,0.020107 0.01433,0.7464403 -0.0082,1.036575 C 13.209237,11.582393 11.473146,13.94712 9.1560085,14.512193 8.7453248,14.612345 8.216678,14.654708 7.7850697,14.622052 Z"
       id="path4" /><path
       style="fill:#000000;stroke-width:0.019802"
       d="M 7.4059406,15.930441 C 6.2772925,15.757819 5.2743065,15.283067 4.3943745,14.50495 4.148525,14.287548 3.7222101,13.8334 3.5117018,13.564651 3.4176592,13.44459 3.3523541,13.378589 3.3267327,13.377712 3.3049505,13.376967 3.1946077,13.394321 3.0815265,13.416276 2.5328069,13.522811 1.9544413,13.560861 1.5520217,13.5169 0.77819901,13.432368 0.25818707,13.02041 0.08942375,12.358219 0.05851089,12.236923 0.04950495,12.137334 0.04950495,11.91679 c 0,-0.453212 0.08046686,-0.755027 0.33945388,-1.273226 C 0.65179388,10.117666 0.95398657,9.6859717 1.529703,9.0139642 l 0.1831683,-0.213804 3.063e-4,-0.588199 C 1.713538,7.5199883 1.7354475,7.1532349 1.8039148,6.6930693 2.041898,5.0935929 2.6374192,3.6852911 3.5665489,2.5247525 3.8253168,2.2015358 4.3165974,1.705726 4.6138614,1.4677847 6.1332491,0.25160912 7.9907749,-0.12697867 9.7227723,0.42652246 10.641566,0.72014481 11.352308,1.1613402 12.175171,1.9488558 c 0.223558,0.2139549 0.28227,0.2603725 0.317995,0.251406 0.194763,-0.048882 0.782759,-0.1556398 0.991861,-0.1800839 0.323419,-0.037808 0.79436,-0.038475 1.039808,-0.00147 0.840619,0.1267233 1.33009,0.6000172 1.424628,1.3775457 0.05418,0.4455788 -0.05666,0.9336939 -0.337199,1.4849386 -0.236555,0.4648256 -0.575554,0.966463 -0.970184,1.4356436 l -0.199867,0.2376237 0.01182,0.1287129 c 0.0065,0.070792 0.02564,0.2356436 0.04252,0.3663367 0.04237,0.3280091 0.05986,1.3458528 0.02965,1.725314 -0.04664,0.5856996 -0.126794,1.084046 -0.26036,1.6187279 -0.74901,2.998383 -2.870948,5.168151 -5.4143549,5.536397 -0.3736033,0.05409 -1.0935081,0.05434 -1.4455445,4.97e-4 z m 1.3026087,-1.308205 c 1.157364,-0.142663 2.3821277,-0.858123 3.1852627,-1.86071 1.049666,-1.310342 1.604861,-2.9752943 1.577788,-4.7315654 -0.0053,-0.3426063 -0.0109,-0.4065755 -0.03614,-0.4114244 -0.01643,-0.00316 -0.150099,0.1024585 -0.297029,0.2347028 -2.017913,1.8162137 -4.8135593,3.601132 -7.317119,4.671713 -0.2871794,0.122805 -0.5235897,0.216205 -1.0737902,0.42423 -0.07896,0.02985 -0.1435644,0.06569 -0.1435644,0.07963 0,0.05028 0.4692127,0.472994 0.7812463,0.70382 0.6803636,0.503299 1.5305456,0.835264 2.3276646,0.908867 0.2318439,0.02141 0.7465299,0.01145 0.995678,-0.01926 z M 2.549505,12.176998 c 0.02995,-0.0073 0.054455,-0.02209 0.054455,-0.03283 0,-0.01074 -0.058049,-0.152991 -0.1289974,-0.316112 -0.1610551,-0.370287 -0.3172654,-0.808373 -0.4258909,-1.194396 -0.045971,-0.163366 -0.086356,-0.300141 -0.089745,-0.303945 -0.00964,-0.01082 -0.3235884,0.421997 -0.4574684,0.630678 -0.2853581,0.444793 -0.4573888,0.910596 -0.3857434,1.044467 0.028101,0.05251 0.1547371,0.113333 0.3404914,0.163548 0.1328441,0.03591 0.1912251,0.03895 0.5928982,0.03086 0.2450495,-0.0049 0.4700495,-0.01496 0.5000005,-0.02227 z M 4.2277228,11.754206 C 5.03702,11.481353 5.7267335,11.188225 6.6831683,10.710642 9.0433697,9.5321051 11.327941,7.9500812 12.990868,6.3426764 13.211544,6.1293673 13.235981,6.0990444 13.224917,6.0522497 13.218122,6.0235125 13.181861,5.8975248 13.144336,5.7722772 12.559912,3.8216354 11.178342,2.2722537 9.5440715,1.73471 9.17934,1.6147427 8.8264909,1.5407229 8.4919622,1.5140013 8.1378974,1.4857192 7.5830442,1.51743 7.2589255,1.5844715 5.4345743,1.9618249 3.9172683,3.426423 3.2003366,5.5020741 3.0004289,6.0808446 2.8464549,6.8188665 2.8003026,7.419501 c -0.029833,0.3882556 -0.01232,1.3454192 0.030367,1.6597069 0.1161259,0.8549755 0.3257065,1.5794021 0.6724903,2.3244971 0.1444143,0.310287 0.2481049,0.487385 0.2853554,0.487373 0.018296,-6e-6 0.2159396,-0.0616 0.4392075,-0.136872 z M 14.162151,5.0544554 c 0.07606,-0.084001 0.269251,-0.3746754 0.414873,-0.6242069 0.170423,-0.2920319 0.299478,-0.6073237 0.316928,-0.7742847 0.0115,-0.1100076 0.0087,-0.1216359 -0.03968,-0.1664977 -0.144005,-0.133459 -0.442968,-0.1836637 -0.982092,-0.1649225 -0.437165,0.015197 -0.534545,0.026041 -0.547968,0.061019 -0.0052,0.013442 0.04936,0.1318655 0.121159,0.2631641 0.193926,0.3546519 0.414535,0.8500137 0.624517,1.4023093 0.02263,0.059516 0.04086,0.060191 0.09226,0.00342 z"
       id="path5" /><path
       style="fill:#00ff00;stroke-width:0.019802"
       d="M 3.7562579,11.79703 C 3.6962999,11.712263 3.5082089,11.32799 3.3953859,11.059763 3.148739,10.473379 2.9635896,9.7701733 2.8582779,9.019802 2.8161658,8.7197432 2.8226792,7.3767479 2.8677377,7.0693069 3.1138949,5.3897372 3.7600159,4.0190677 4.787765,2.9961957 5.4970212,2.2903052 6.375425,1.803968 7.2672782,1.6233882 c 0.8242759,-0.1668971 1.6905804,-0.087535 2.485197,0.2276691 1.3565518,0.5381092 2.4936398,1.7419704 3.1361418,3.3203035 0.138966,0.3413764 0.296896,0.8463826 0.282556,0.903518 -0.02039,0.081227 -0.692319,0.7085131 -1.311355,1.2242232 -2.2614431,1.8839748 -5.2490907,3.609031 -7.6619167,4.42396 -0.2091276,0.07063 -0.3853829,0.128423 -0.3916786,0.128423 -0.0063,0 -0.02878,-0.0245 -0.049965,-0.05446 z"
       id="path6" /><path
       style="fill:#00ff00;stroke-width:0.019802"
       d="m 7.7722772,14.612668 c -0.027228,-0.0047 -0.1297029,-0.0184 -0.2277227,-0.03038 C 7.1272339,14.531298 6.5441268,14.347114 6.1094817,14.128999 5.6826209,13.91479 5.1994455,13.566583 4.8055794,13.189324 l -0.1647176,-0.157773 0.1548166,-0.05786 c 1.6378099,-0.612139 3.130383,-1.360349 4.778579,-2.395446 1.2508786,-0.7855745 2.4738766,-1.7022912 3.5940596,-2.6939826 0.130693,-0.1157018 0.245358,-0.2105076 0.254811,-0.2106795 0.02885,-5.246e-4 4.5e-5,1.1321016 -0.03524,1.385826 -0.171882,1.2359881 -0.562137,2.2955831 -1.181497,3.2079211 -0.871084,1.283134 -2.108712,2.111808 -3.4463328,2.307548 -0.1985089,0.02905 -0.8865804,0.05537 -0.987783,0.03779 z"
       id="path7" /></g></svg>
