<?xml version="1.0" encoding="UTF-8" standalone="no"?>
<!-- Created with Inkscape (http://www.inkscape.org/) -->

<svg
   width="16"
   height="16"
   viewBox="0 0 16 16"
   version="1.1"
   id="svg1"
   xml:space="preserve"
   inkscape:version="1.4.2 (f4327f4, 2025-05-13)"
   sodipodi:docname="black-planet.svg"
   xmlns:inkscape="http://www.inkscape.org/namespaces/inkscape"
   xmlns:sodipodi="http://sodipodi.sourceforge.net/DTD/sodipodi-0.dtd"
   xmlns="http://www.w3.org/2000/svg"
   xmlns:svg="http://www.w3.org/2000/svg"><sodipodi:namedview
     id="namedview1"
     pagecolor="#ffffff"
     bordercolor="#000000"
     borderopacity="0.25"
     inkscape:showpageshadow="2"
     inkscape:pageopacity="0.0"
     inkscape:pagecheckerboard="0"
     inkscape:deskcolor="#d1d1d1"
     inkscape:document-units="px"
     inkscape:zoom="50.5"
     inkscape:cx="7.7326733"
     inkscape:cy="7.7029703"
     inkscape:window-width="1920"
     inkscape:window-height="1010"
     inkscape:window-x="1433"
     inkscape:window-y="-6"
     inkscape:window-maximized="1"
     inkscape:current-layer="layer1" /><defs
     id="defs1"><rect
       x="0.099009901"
       y="0.13861386"
       width="15.821782"
       height="15.821782"
       id="rect1" /></defs><g
     inkscape:label="Layer 1"
     inkscape:groupmode="layer"
     id="layer1"><text
       xml:space="preserve"
       id="text1"
       style="text-align:start;writing-mode:lr-tb;direction:ltr;white-space:pre;shape-inside:url(#rect1);display:inline;fill:#000000" /><g
       style="color:#dfe5e1;fill:none;stroke-width:1.5"
       id="g2"
       transform="matrix(0.73644084,0,0,0.90560272,-0.70981348,-2.7880239)"><circle
         cx="12"
         cy="12"
         r="8"
         stroke="#dfe5e1"
         stroke-width="1.5"
         id="circle1" /><path
         d="m 17.4995,6.34835 c 2.298,-0.53868 3.9452,-0.47627 4.3381,0.31167 0.731,1.46614 -3.1579,4.88908 -8.6861,7.64528 -5.52823,2.7563 -10.6023,3.8021 -11.33329,2.336 -0.39191,-0.786 0.54413,-2.1346 2.3488,-3.6412"
         stroke="#dfe5e1"
         stroke-width="1.5"
         id="path1" /></g><path
       style="fill:#00ff00;stroke-width:0.019802"
       d="M 7.6930693,15.976809 C 6.5224638,15.859387 5.5566119,15.45835 4.5841584,14.685939 4.2386101,14.411473 3.6633174,13.808046 3.3831533,13.426199 l -0.036619,-0.04991 -0.2490028,0.04882 C 2.6299695,13.516784 2.3800978,13.542285 1.950495,13.542175 1.4881331,13.542056 1.259143,13.506068 0.96799305,13.387767 0.48469735,13.191391 0.16538516,12.807064 0.05946011,12.294248 0.01625528,12.08508 0.02077813,11.713382 0.06943333,11.474627 0.20993154,10.785191 0.6833083,9.9713749 1.479195,9.051005 L 1.7005058,8.7950792 1.7039337,8.0807079 C 1.7073697,7.3646592 1.7211747,7.1588782 1.8016741,6.6237624 2.2887461,3.385975 4.4069705,0.82201455 7.0435529,0.27883911 8.067481,0.06789463 9.1109117,0.15717452 10.079208,0.53858127 c 0.783223,0.30850748 1.440447,0.74577413 2.09723,1.39533773 0.151496,0.149831 0.280704,0.2691986 0.287129,0.2652614 0.0162,-0.00993 0.557617,-0.121896 0.714651,-0.1477927 1.030786,-0.169989 1.796918,-0.059551 2.264933,0.3264891 0.526494,0.4342765 0.674015,1.2116648 0.387443,2.0416957 -0.193788,0.5612885 -0.684602,1.3410414 -1.2613,2.0038198 -0.112264,0.1290206 -0.125869,0.1534081 -0.115995,0.2079208 0.0062,0.033966 0.02463,0.1731423 0.04107,0.309281 0.216864,1.7961629 -0.08814,3.6545229 -0.856151,5.2164199 -0.396495,0.806348 -0.850459,1.450381 -1.439911,2.042782 -0.519676,0.522275 -1.071925,0.926097 -1.662716,1.215831 -0.6428556,0.315266 -1.2349912,0.48714 -1.9089781,0.554099 -0.1894397,0.01882 -0.7724349,0.02324 -0.9335456,0.0071 z m 0.7722772,-1.342095 c 1.108104,-0.0543 2.3373885,-0.677498 3.1952045,-1.619831 0.676705,-0.743379 1.2189,-1.727126 1.506302,-2.733 0.206846,-0.723938 0.310525,-1.4861757 0.30634,-2.25218 -0.0027,-0.4853917 0.0064,-0.4710444 -0.186415,-0.2939711 -2.29201,2.1043849 -5.6337592,4.1656731 -8.360875,5.1572301 -0.1768921,0.06432 -0.3216941,0.122457 -0.3217822,0.129202 -8.83e-5,0.0067 0.095707,0.104765 0.2128788,0.217822 0.7619147,0.735161 1.6273816,1.186263 2.598842,1.354577 0.1975327,0.03422 0.627498,0.06585 0.7623762,0.05608 0.043564,-0.0032 0.1727723,-0.01032 0.2871287,-0.01593 z M 2.3762376,12.185695 c 0.119802,-0.01228 0.220921,-0.02506 0.2247087,-0.02839 0.00379,-0.0033 -0.035278,-0.09801 -0.086812,-0.210394 C 2.3243911,11.533127 2.1466636,11.040499 2.0229139,10.585337 L 1.9559369,10.338992 1.777672,10.578003 c -0.3989629,0.534915 -0.6531382,1.038166 -0.664629,1.315923 -0.00371,0.08958 0.002,0.1048 0.055273,0.147452 0.068186,0.05459 0.247457,0.118237 0.4059406,0.144124 0.1582909,0.02585 0.5507848,0.02595 0.801981,1.93e-4 z M 4.2151927,11.748898 C 6.430865,11.012299 9.2821016,9.4038598 11.472872,7.6546968 12.050054,7.1938612 12.717258,6.6058618 13.076715,6.2412475 L 13.222737,6.0931307 13.197802,5.9871594 C 13.184088,5.9288752 13.133449,5.761305 13.085271,5.6147814 12.748008,4.5890568 12.212093,3.6981715 11.505436,2.9885204 10.657855,2.1373483 9.6810861,1.652149 8.5588665,1.5248446 8.3782364,1.5043539 7.8203859,1.510383 7.6138614,1.535058 6.471645,1.6715268 5.3738061,2.2701333 4.5295479,3.2168075 3.600064,4.2590459 3.0224461,5.6041671 2.8284513,7.1782178 c -0.050031,0.4059452 -0.050031,1.3960351 0,1.8019802 0.1158612,0.9400826 0.3446859,1.7289 0.7266507,2.504951 0.075047,0.152475 0.154254,0.305814 0.1760158,0.340753 l 0.039567,0.06353 0.1021275,-0.03033 c 0.05617,-0.01668 0.2102414,-0.06627 0.3423806,-0.110201 z M 14.187672,5.0041782 C 14.535663,4.5327453 14.791136,4.0655517 14.865252,3.7650568 14.916993,3.555281 14.903844,3.5140701 14.762236,3.4422018 14.606254,3.363038 14.451473,3.333477 14.138614,3.323098 c -0.268481,-0.00891 -0.784728,0.029287 -0.815796,0.060355 -0.0052,0.00524 0.02587,0.070361 0.06913,0.144718 0.204694,0.3518556 0.46497,0.9188544 0.627908,1.3678687 0.04051,0.1116337 0.07935,0.2026228 0.08631,0.202198 0.007,-4.247e-4 0.04364,-0.042751 0.08151,-0.094059 z"
       id="path2" /><path
       style="fill:#000000;stroke-width:0.019802"
       d="M 3.6575353,11.64985 C 3.2299676,10.843447 2.9473907,9.8988721 2.8381542,8.9108911 c -0.034871,-0.3153905 -0.034871,-1.3479759 0,-1.6633663 C 3.0265281,5.5437917 3.7059648,4.051857 4.7815224,2.980198 5.5845087,2.1801221 6.5583093,1.6877518 7.6039604,1.5531248 7.8731628,1.5184651 8.4342782,1.5232419 8.7128713,1.562565 10.200102,1.7724857 11.519052,2.7072089 12.414687,4.1859943 12.577129,4.4542022 12.8,4.9075832 12.926924,5.228024 c 0.107776,0.2720992 0.271088,0.7803267 0.271093,0.8436451 4e-6,0.047125 -0.563157,0.5827778 -1.079205,1.0264899 -2.1786187,1.8732362 -5.1753548,3.655999 -7.6217808,4.534208 -0.1778466,0.06384 -0.4003914,0.139574 -0.4945439,0.168293 -0.094153,0.02872 -0.183548,0.05696 -0.1986566,0.06276 -0.019013,0.0073 -0.064054,-0.05846 -0.1462954,-0.213566 z"
       id="path3" /><path
       style="fill:#000000;stroke-width:0.019802"
       d="M 7.7850697,14.622052 C 7.1195889,14.571702 6.3755842,14.328129 5.7832081,13.966681 5.4329653,13.752975 4.9226234,13.345848 4.6766542,13.083924 l -0.056019,-0.05965 0.085722,-0.03129 C 6.1961396,12.4492 7.5119739,11.812456 9.019802,10.905666 c 1.610199,-0.9683545 2.868617,-1.8974142 4.316981,-3.1871234 0.05154,-0.045891 0.09932,-0.077821 0.106182,-0.070957 0.02011,0.020107 0.01433,0.7464403 -0.0082,1.036575 C 13.209237,11.582393 11.473146,13.94712 9.1560085,14.512193 8.7453248,14.612345 8.216678,14.654708 7.7850697,14.622052 Z"
       id="path4" /><path
       style="fill:#000000;stroke-width:0.019802"
       d="M 7.4059406,15.930441 C 6.2772925,15.757819 5.2743065,15.283067 4.3943745,14.50495 4.148525,14.287548 3.7222101,13.8334 3.5117018,13.564651 3.4176592,13.44459 3.3523541,13.378589 3.3267327,13.377712 3.3049505,13.376967 3.1946077,13.394321 3.0815265,13.416276 2.5328069,13.522811 1.9544413,13.560861 1.5520217,13.5169 0.77819901,13.432368 0.25818707,13.02041 0.08942375,12.358219 0.05851089,12.236923 0.04950495,12.137334 0.04950495,11.91679 c 0,-0.453212 0.08046686,-0.755027 0.33945388,-1.273226 C 0.65179388,10.117666 0.95398657,9.6859717 1.529703,9.0139642 l 0.1831683,-0.213804 3.063e-4,-0.588199 C 1.713538,7.5199883 1.7354475,7.1532349 1.8039148,6.6930693 2.041898,5.0935929 2.6374192,3.6852911 3.5665489,2.5247525 3.8253168,2.2015358 4.3165974,1.705726 4.6138614,1.4677847 6.1332491,0.25160912 7.9907749,-0.12697867 9.7227723,0.42652246 10.641566,0.72014481 11.352308,1.1613402 12.175171,1.9488558 c 0.223558,0.2139549 0.28227,0.2603725 0.317995,0.251406 0.194763,-0.048882 0.782759,-0.1556398 0.991861,-0.1800839 0.323419,-0.037808 0.79436,-0.038475 1.039808,-0.00147 0.840619,0.1267233 1.33009,0.6000172 1.424628,1.3775457 0.05418,0.4455788 -0.05666,0.9336939 -0.337199,1.4849386 -0.236555,0.4648256 -0.575554,0.966463 -0.970184,1.4356436 l -0.199867,0.2376237 0.01182,0.1287129 c 0.0065,0.070792 0.02564,0.2356436 0.04252,0.3663367 0.04237,0.3280091 0.05986,1.3458528 0.02965,1.725314 -0.04664,0.5856996 -0.126794,1.084046 -0.26036,1.6187279 -0.74901,2.998383 -2.870948,5.168151 -5.4143549,5.536397 -0.3736033,0.05409 -1.0935081,0.05434 -1.4455445,4.97e-4 z m 1.3026087,-1.308205 c 1.157364,-0.142663 2.3821277,-0.858123 3.1852627,-1.86071 1.049666,-1.310342 1.604861,-2.9752943 1.577788,-4.7315654 -0.0053,-0.3426063 -0.0109,-0.4065755 -0.03614,-0.4114244 -0.01643,-0.00316 -0.150099,0.1024585 -0.297029,0.2347028 -2.017913,1.8162137 -4.8135593,3.601132 -7.317119,4.671713 -0.2871794,0.122805 -0.5235897,0.216205 -1.0737902,0.42423 -0.07896,0.02985 -0.1435644,0.06569 -0.1435644,0.07963 0,0.05028 0.4692127,0.472994 0.7812463,0.70382 0.6803636,0.503299 1.5305456,0.835264 2.3276646,0.908867 0.2318439,0.02141 0.7465299,0.01145 0.995678,-0.01926 z M 2.549505,12.176998 c 0.02995,-0.0073 0.054455,-0.02209 0.054455,-0.03283 0,-0.01074 -0.058049,-0.152991 -0.1289974,-0.316112 -0.1610551,-0.370287 -0.3172654,-0.808373 -0.4258909,-1.194396 -0.045971,-0.163366 -0.086356,-0.300141 -0.089745,-0.303945 -0.00964,-0.01082 -0.3235884,0.421997 -0.4574684,0.630678 -0.2853581,0.444793 -0.4573888,0.910596 -0.3857434,1.044467 0.028101,0.05251 0.1547371,0.113333 0.3404914,0.163548 0.1328441,0.03591 0.1912251,0.03895 0.5928982,0.03086 0.2450495,-0.0049 0.4700495,-0.01496 0.5000005,-0.02227 z M 4.2277228,11.754206 C 5.03702,11.481353 5.7267335,11.188225 6.6831683,10.710642 9.0433697,9.5321051 11.327941,7.9500812 12.990868,6.3426764 13.211544,6.1293673 13.235981,6.0990444 13.224917,6.0522497 13.218122,6.0235125 13.181861,5.8975248 13.144336,5.7722772 12.559912,3.8216354 11.178342,2.2722537 9.5440715,1.73471 9.17934,1.6147427 8.8264909,1.5407229 8.4919622,1.5140013 8.1378974,1.4857192 7.5830442,1.51743 7.2589255,1.5844715 5.4345743,1.9618249 3.9172683,3.426423 3.2003366,5.5020741 3.0004289,6.0808446 2.8464549,6.8188665 2.8003026,7.419501 c -0.029833,0.3882556 -0.01232,1.3454192 0.030367,1.6597069 0.1161259,0.8549755 0.3257065,1.5794021 0.6724903,2.3244971 0.1444143,0.310287 0.2481049,0.487385 0.2853554,0.487373 0.018296,-6e-6 0.2159396,-0.0616 0.4392075,-0.136872 z M 14.162151,5.0544554 c 0.07606,-0.084001 0.269251,-0.3746754 0.414873,-0.6242069 0.170423,-0.2920319 0.299478,-0.6073237 0.316928,-0.7742847 0.0115,-0.1100076 0.0087,-0.1216359 -0.03968,-0.1664977 -0.144005,-0.133459 -0.442968,-0.1836637 -0.982092,-0.1649225 -0.437165,0.015197 -0.534545,0.026041 -0.547968,0.061019 -0.0052,0.013442 0.04936,0.1318655 0.121159,0.2631641 0.193926,0.3546519 0.414535,0.8500137 0.624517,1.4023093 0.02263,0.059516 0.04086,0.060191 0.09226,0.00342 z"
       id="path5" /><path
       style="fill:#00ff00;stroke-width:0.019802"
       d="M 3.7562579,11.79703 C 3.6962999,11.712263 3.5082089,11.32799 3.3953859,11.059763 3.148739,10.473379 2.9635896,9.7701733 2.8582779,9.019802 2.8161658,8.7197432 2.8226792,7.3767479 2.8677377,7.0693069 3.1138949,5.3897372 3.7600159,4.0190677 4.787765,2.9961957 5.4970212,2.2903052 6.375425,1.803968 7.2672782,1.6233882 c 0.8242759,-0.1668971 1.6905804,-0.087535 2.485197,0.2276691 1.3565518,0.5381092 2.4936398,1.7419704 3.1361418,3.3203035 0.138966,0.3413764 0.296896,0.8463826 0.282556,0.903518 -0.02039,0.081227 -0.692319,0.7085131 -1.311355,1.2242232 -2.2614431,1.8839748 -5.2490907,3.609031 -7.6619167,4.42396 -0.2091276,0.07063 -0.3853829,0.128423 -0.3916786,0.128423 -0.0063,0 -0.02878,-0.0245 -0.049965,-0.05446 z"
       id="path6" /><path
       style="fill:#00ff00;stroke-width:0.019802"
       d="m 7.7722772,14.612668 c -0.027228,-0.0047 -0.1297029,-0.0184 -0.2277227,-0.03038 C 7.1272339,14.531298 6.5441268,14.347114 6.1094817,14.128999 5.6826209,13.91479 5.1994455,13.566583 4.8055794,13.189324 l -0.1647176,-0.157773 0.1548166,-0.05786 c 1.6378099,-0.612139 3.130383,-1.360349 4.778579,-2.395446 1.2508786,-0.7855745 2.4738766,-1.7022912 3.5940596,-2.6939826 0.130693,-0.1157018 0.245358,-0.2105076 0.254811,-0.2106795 0.02885,-5.246e-4 4.5e-5,1.1321016 -0.03524,1.385826 -0.171882,1.2359881 -0.562137,2.2955831 -1.181497,3.2079211 -0.871084,1.283134 -2.108712,2.111808 -3.4463328,2.307548 -0.1985089,0.02905 -0.8865804,0.05537 -0.987783,0.03779 z"
       id="path7" /><path
       style="fill:#000000;stroke-width:0.019802"
       d="M 7.7722772,15.949833 C 7.4559863,15.934304 7.2304329,15.899269 6.8712871,15.809881 5.5841354,15.489523 4.5098758,14.770478 3.5376396,13.578537 3.450503,13.471709 3.3679368,13.389741 3.3405408,13.382865 c -0.02593,-0.0065 -0.1866745,0.0113 -0.3572095,0.03957 -0.4513125,0.07482 -0.6641737,0.09382 -1.0526382,0.09396 C 1.4287206,13.516579 1.170234,13.463944 0.84061749,13.294429 0.48070436,13.109333 0.22228251,12.787351 0.10878037,12.382594 0.07584693,12.265151 0.06807218,12.179343 0.06783504,11.930693 0.06736297,11.435713 0.13537362,11.181134 0.41698182,10.623762 0.66739976,10.128124 0.96045184,9.7042693 1.4608254,9.1140042 L 1.7083028,8.8220675 1.7203197,8.1932121 C 1.7382845,7.2530986 1.7717864,6.8734105 1.8919981,6.2475248 2.1688743,4.8059614 2.7923901,3.4673079 3.6811325,2.4063541 3.8924432,2.154098 4.3890558,1.6654263 4.6314368,1.4712456 5.4598604,0.80756374 6.4156184,0.38436895 7.4197317,0.23663183 7.7110996,0.19376233 8.2693459,0.17874305 8.5643564,0.2058364 9.6275495,0.30347858 10.634,0.70453705 11.49505,1.3736824 c 0.201361,0.1564838 0.411814,0.3397866 0.693019,0.6036157 0.114384,0.1073159 0.226209,0.2037132 0.248501,0.2142162 0.02919,0.013753 0.14273,-7.897e-4 0.405756,-0.05197 0.598858,-0.1165262 0.78354,-0.1345352 1.276486,-0.1244745 0.389657,0.00795 0.456546,0.01438 0.633663,0.060888 0.233052,0.061195 0.508791,0.19299 0.668155,0.3193573 0.485341,0.3848519 0.653202,1.1229846 0.427894,1.8815789 -0.163177,0.5494089 -0.627325,1.3265471 -1.212442,2.0300368 -0.08606,0.1034653 -0.167478,0.2014851 -0.180938,0.2178218 -0.01954,0.023711 -0.01676,0.093617 0.01375,0.3465346 0.05734,0.4752854 0.07273,1.6826739 0.02713,2.1287129 -0.169485,1.6578789 -0.733794,3.1703979 -1.639643,4.3947409 -0.426269,0.576143 -0.971184,1.114091 -1.539556,1.519872 -0.664595,0.474478 -1.4773684,0.823535 -2.25111,0.96677 -0.3631081,0.06722 -0.8229157,0.09155 -1.2934448,0.06845 z m 0.7828782,-1.30709 c 0.8743676,-0.071 1.8593406,-0.498235 2.6131616,-1.133464 1.049268,-0.884197 1.835561,-2.265021 2.149546,-3.7748606 0.106581,-0.5125095 0.139801,-0.8304628 0.151587,-1.4508521 0.01077,-0.5668081 0.0051,-0.6697049 -0.0371,-0.6697049 -0.02678,0 -0.148408,0.09619 -0.363048,0.287115 -2.162713,1.9237606 -5.1706032,3.7960916 -7.7029704,4.7948916 -0.2613861,0.103094 -0.5376148,0.212059 -0.6138417,0.242143 -0.091335,0.03605 -0.1409672,0.06702 -0.1455537,0.09084 -0.011099,0.05763 0.4050099,0.438793 0.7888548,0.722604 0.6283886,0.464623 1.473102,0.802668 2.2245058,0.890221 0.2077552,0.02421 0.6437653,0.02471 0.9348536,0.0011 z M 2.4750523,12.19092 C 2.5615593,12.18162 2.5953073,12.1696 2.5997214,12.1464 2.6030514,12.1289 2.5378694,11.95068 2.4548747,11.75036 2.3146834,11.411984 2.1403053,10.91181 2.0189572,10.5 c -0.028081,-0.0953 -0.057858,-0.173267 -0.06617,-0.173267 -0.020808,0 -0.3304917,0.426183 -0.4676429,0.643564 -0.3079417,0.48808 -0.4652198,0.964124 -0.3514808,1.06385 0.053624,0.04702 0.1607265,0.09678 0.291587,0.13547 0.097819,0.02892 0.1924097,0.03516 0.5252446,0.03464 0.2232674,-3.49e-4 0.4593181,-0.0064 0.5245573,-0.01334 z M 4.256738,11.752234 c 2.2533064,-0.760001 5.071519,-2.3567324 7.285673,-4.1278875 0.607719,-0.4861291 1.612465,-1.3879186 1.673554,-1.5020653 0.02425,-0.045308 0.0195,-0.075792 -0.04584,-0.2943329 C 12.831164,4.6943214 12.272674,3.7350289 11.506037,2.9696271 10.871842,2.3364539 10.198737,1.9233367 9.4158416,1.6867737 8.8374236,1.5119964 8.3298202,1.4613698 7.706378,1.5162777 6.5990717,1.6138005 5.5519196,2.1387203 4.6825004,3.032097 4.3862721,3.3364879 4.2240735,3.5360699 3.9924505,3.8811881 3.3614707,4.8213481 2.9566285,5.9600299 2.813198,7.1980198 2.776878,7.5115069 2.770952,8.4258364 2.802555,8.8401228 c 0.067912,0.8902657 0.3537824,1.9005192 0.7759692,2.7422422 0.1159784,0.231229 0.1719223,0.308724 0.2228701,0.308724 0.024011,0 0.2289156,-0.06248 0.4553437,-0.138855 z M 14.242506,4.9653465 C 14.72689,4.2990382 15.007935,3.6195424 14.856436,3.4810156 14.715662,3.352296 14.568522,3.326704 13.970297,3.3268885 c -0.529259,1.634e-4 -0.653465,0.011634 -0.653465,0.060345 0,0.015952 0.08357,0.1959938 0.185716,0.4000928 0.186986,0.373628 0.384658,0.8178804 0.506541,1.1384159 0.0487,0.1280847 0.07506,0.1732673 0.101066,0.1732673 0.02064,0 0.07536,-0.055262 0.132351,-0.133663 z"
       id="path8" /><path
       style="fill:#000000;stroke-width:0.019802"
       d="M 7.7623762,15.949681 C 6.7982669,15.902902 5.686038,15.483456 4.8373931,14.846607 4.3959004,14.515297 4.0482432,14.17984 3.5718507,13.625476 3.4697091,13.506617 3.3710281,13.400037 3.35256,13.388632 c -0.024443,-0.01509 -0.1241091,-0.006 -0.3663366,0.03327 -0.4790735,0.07776 -0.6656137,0.09447 -1.0555303,0.09455 C 1.4286553,13.51655 1.1701505,13.463902 0.84061749,13.294426 0.57564107,13.158157 0.35831945,12.943259 0.22987558,12.690498 0.09357875,12.422283 0.06689479,12.295977 0.06729197,11.920919 0.06775184,11.48666 0.12159785,11.246176 0.30925077,10.840296 0.58368711,10.246711 0.90964818,9.7607699 1.5014421,9.0629822 L 1.708335,8.8190337 1.7217318,8.1322891 C 1.737041,7.347516 1.7664472,6.972825 1.8520277,6.4720731 2.114956,4.9336154 2.7283251,3.5572475 3.6437295,2.4515893 3.8815436,2.1643487 4.3660162,1.683467 4.6336634,1.4689924 5.4610335,0.80599327 6.4135287,0.3846764 7.4197317,0.23663183 7.7110996,0.19376233 8.2693459,0.17874305 8.5643564,0.2058364 c 0.9978961,0.0916454 1.9579446,0.45495211 2.7715956,1.048842 0.272939,0.1992197 0.482309,0.3757037 0.812563,0.6849319 0.136138,0.1274713 0.265912,0.2406614 0.288384,0.2515333 0.02998,0.014506 0.121789,0.00352 0.34494,-0.041276 0.611581,-0.1227719 0.830284,-0.1450667 1.324863,-0.1350569 0.402727,0.00815 0.467667,0.014295 0.645773,0.061102 0.233104,0.061261 0.508838,0.1930714 0.668155,0.3194014 0.469724,0.3724684 0.641882,1.0676478 0.447884,1.8085767 -0.146157,0.5582129 -0.587829,1.3176083 -1.196819,2.0577701 -0.257801,0.3133291 -0.245232,0.2695301 -0.194843,0.6789323 0.01976,0.1605136 0.03435,0.5085582 0.04152,0.990099 0.01231,0.8267503 -0.0052,1.0947774 -0.113593,1.7411216 -0.396744,2.3652282 -1.682929,4.4104102 -3.444386,5.4769702 -0.594635,0.36005 -1.2503762,0.613712 -1.8936263,0.732516 -0.3666398,0.06772 -0.8239715,0.09169 -1.3043935,0.06838 z m 1.059406,-1.335972 c 0.7355501,-0.120565 1.4822228,-0.449733 2.1443038,-0.945306 0.341021,-0.255258 0.801217,-0.720743 1.07479,-1.087143 0.616604,-0.825824 1.04373,-1.77093 1.266037,-2.8013752 0.113354,-0.5254171 0.149391,-0.8574032 0.162321,-1.495348 0.01144,-0.5645509 0.0056,-0.6706754 -0.03688,-0.6706754 -0.02803,0 -0.140194,0.090626 -0.442256,0.357343 C 10.7734,9.9285238 7.7342709,11.79215 5.1252905,12.793989 c -0.4515907,0.17341 -0.5213301,0.205314 -0.5213301,0.238496 0,0.05416 0.4140346,0.43333 0.7443519,0.68168 0.6714616,0.50484 1.4912839,0.832574 2.344757,0.937346 0.151716,0.01862 0.9469505,-0.008 1.1287129,-0.0378 z m -6.2524753,-2.43474 c 0.019059,-0.0082 0.034654,-0.02431 0.034654,-0.03584 0,-0.01152 -0.083979,-0.231111 -0.1866208,-0.48798 -0.1664921,-0.41666 -0.2749228,-0.732436 -0.4068545,-1.184856 -0.023026,-0.07896 -0.048171,-0.143448 -0.055878,-0.143306 -0.00771,1.41e-4 -0.071858,0.07811 -0.1425577,0.173267 -0.4444657,0.59821 -0.7130394,1.129169 -0.7130394,1.40965 0,0.107811 0.023926,0.137172 0.1612964,0.197938 0.208719,0.09233 0.2761221,0.100264 0.7891987,0.09294 0.2668316,-0.0038 0.5007425,-0.01363 0.5198019,-0.02182 z M 4.0850016,11.80986 c 2.3089,-0.745335 5.3207934,-2.4484246 7.5783644,-4.2852232 0.404351,-0.3289863 0.721996,-0.6060176 1.154845,-1.0071855 0.313029,-0.2901174 0.419413,-0.4033323 0.419413,-0.4463434 0,-0.011354 -0.04064,-0.152295 -0.0903,-0.3132024 C 12.648282,4.1411103 11.665226,2.8428842 10.377589,2.1001883 9.8446,1.7927662 9.1923865,1.5805777 8.5742574,1.5135 8.3149703,1.4853629 7.7577438,1.5004112 7.4616448,1.543547 6.0440723,1.7500593 4.7097923,2.6989354 3.8399978,4.1190893 3.2928622,5.0124226 2.9128717,6.1752309 2.8024206,7.2941772 c -0.025442,0.2577466 -0.025587,1.2190149 -2.335e-4,1.547407 0.037819,0.489852 0.1707099,1.1408495 0.3385363,1.6584058 0.2143718,0.661097 0.5573764,1.391099 0.6536328,1.391099 0.021457,0 0.152248,-0.03655 0.2906454,-0.08123 z M 14.15861,5.066284 C 14.266194,4.9587002 14.554262,4.5052396 14.697609,4.2178218 14.881197,3.8497186 14.945664,3.5772345 14.869163,3.492702 14.820813,3.439277 14.737404,3.396689 14.613861,3.3623499 c -0.213169,-0.059252 -1.188466,-0.056126 -1.270792,0.00407 -0.033,0.024128 -0.01872,0.060178 0.20503,0.5178742 0.132272,0.2705678 0.291277,0.6166937 0.353344,0.7691689 0.201702,0.4955103 0.191251,0.4787341 0.257167,0.4128187 z"
       id="path9" /><path
       style="fill:#000000;stroke-width:0.019802"
       d="M 3.7391057,11.747525 C 3.6616818,11.625665 3.4159469,11.088413 3.3111495,10.811881 3.1495494,10.385462 3.0125658,9.8659818 2.9090823,9.2871287 2.8601951,9.0136699 2.8552543,8.9366717 2.8468202,8.3168317 2.8329468,7.2972345 2.8702346,6.9192325 3.0587596,6.1683168 3.5386014,4.2570539 4.6534206,2.7726613 6.1782178,2.014728 6.6142511,1.7979883 7.0522154,1.6612329 7.5339816,1.5913877 c 0.3745432,-0.0543 0.9704691,-0.045135 1.3317317,0.020482 1.0117582,0.1837689 1.8749997,0.6625298 2.6703437,1.4809951 0.534787,0.5503334 0.983888,1.2368465 1.305894,1.9962437 0.102396,0.241482 0.29005,0.7996535 0.308672,0.9181339 l 0.01359,0.086451 -0.245472,0.2408429 c -1.88803,1.8524301 -5.0112638,3.8785947 -7.6811152,4.9830427 -0.4983833,0.206168 -1.3478741,0.514104 -1.418238,0.514104 -0.014745,0 -0.050871,-0.03787 -0.08028,-0.08416 z"
       id="path10" /><path
       style="fill:#00ff00;stroke-width:0.019802"
       d="M 7.5445545,14.574326 C 6.7648962,14.448348 6.0727912,14.160217 5.4386208,13.697604 5.1063059,13.455187 4.6562768,13.058314 4.6844033,13.032472 c 0.00477,-0.0044 0.1868838,-0.07713 0.4047056,-0.161669 1.3582924,-0.527166 2.6443475,-1.163479 3.9711444,-1.96484 1.4338237,-0.866004 2.6251297,-1.7307298 3.9298457,-2.8525323 l 0.415842,-0.3575431 0.0059,0.379779 c 0.0077,0.48971 -0.0219,0.9409131 -0.08503,1.2981618 -0.286293,1.6201276 -0.954162,2.9182006 -2.016082,3.9184646 -0.707624,0.666538 -1.5905335,1.114254 -2.4889768,1.26214 -0.2743121,0.04515 -1.0464703,0.05718 -1.2772277,0.01989 z"
       id="path11" /><path
       style="fill:#1a1a1a;stroke-width:0.019802"
       d="M 7.7425743,15.949304 C 6.940216,15.908955 5.9898901,15.592305 5.2178218,15.108052 4.6454834,14.749073 4.1850798,14.337734 3.6244097,13.684448 3.5022937,13.54216 3.3869818,13.41301 3.3681612,13.397449 c -0.029865,-0.02469 -0.077509,-0.02153 -0.3744574,0.02487 -0.1871311,0.02924 -0.4248919,0.06237 -0.5283573,0.07362 -0.2887103,0.03138 -0.8514273,0.02585 -1.0563743,-0.01039 C 0.81310196,13.380192 0.38005224,13.06425 0.18025186,12.589106 0.08560061,12.364016 0.06766056,12.259296 0.06745563,11.930693 0.06717619,11.482615 0.11783839,11.256003 0.31315442,10.831683 0.58169281,10.248289 0.8959576,9.7795766 1.4907049,9.0754186 L 1.7029703,8.8241046 1.7255763,8.0061117 C 1.7538335,6.9836301 1.8060337,6.5488133 1.9905358,5.7990543 2.8271382,2.3993604 5.4225875,0.0963775 8.3069307,0.19441747 c 0.7627519,0.0259262 1.4836109,0.209272 2.1881193,0.55653368 0.606162,0.29878575 0.954174,0.54654495 1.610391,1.14647995 0.156013,0.1426317 0.300594,0.2711923 0.321293,0.2856903 0.03203,0.022433 0.08564,0.01715 0.359906,-0.035463 0.594292,-0.1140065 0.805405,-0.1375698 1.233162,-0.137639 0.420697,-6.82e-5 0.625451,0.024076 0.860826,0.1015079 0.583084,0.1918183 0.927491,0.5775015 1.038481,1.1629376 0.150524,0.793972 -0.238055,1.7318235 -1.229854,2.9683045 -0.279026,0.3478628 -0.262544,0.2917891 -0.209757,0.7136232 0.02721,0.2174194 0.03409,0.4405126 0.03465,1.1228154 7.71e-4,0.9368329 -0.0163,1.1444776 -0.149745,1.8217822 -0.474607,2.4088238 -1.817779,4.3913948 -3.651535,5.3897968 -0.7437189,0.404924 -1.4826845,0.619103 -2.2772274,0.660025 -0.1960396,0.0101 -0.3653466,0.01725 -0.3762377,0.01589 -0.010891,-0.0014 -0.1534653,-0.0092 -0.3168316,-0.0174 z m 1.0693069,-1.335818 c 0.6758812,-0.101738 1.4243478,-0.420382 2.0594058,-0.87675 1.378495,-0.990619 2.355666,-2.805379 2.566524,-4.766439 0.02715,-0.2525204 0.03755,-1.3230489 0.01309,-1.347681 -0.02131,-0.02146 -0.138845,0.063666 -0.361789,0.2620274 C 10.850536,9.8763877 7.8397374,11.738925 5.1980198,12.766221 4.6618614,12.97472 4.6039604,13.0004 4.6039604,13.029698 c 0,0.02953 0.2933982,0.318878 0.4752475,0.468681 0.2468161,0.203322 0.3082984,0.249321 0.5167612,0.386623 0.6013293,0.396058 1.3383691,0.670097 2.0376943,0.757633 0.2031667,0.02543 0.9360833,0.0073 1.1782178,-0.02915 z M 2.5693069,12.178073 c 0.019059,-0.0077 0.034654,-0.02199 0.034654,-0.03176 0,-0.0098 -0.083912,-0.229362 -0.1864703,-0.487981 -0.1659354,-0.418433 -0.2701416,-0.721509 -0.4084737,-1.188017 -0.023411,-0.07895 -0.05061,-0.138573 -0.060444,-0.132495 -0.032821,0.02028 -0.2488764,0.314139 -0.4004984,0.544714 -0.2684704,0.40827 -0.4490646,0.820665 -0.4490646,1.025459 0,0.0829 0.00833,0.105587 0.051148,0.139265 0.056911,0.04477 0.233351,0.115298 0.3547922,0.141828 0.090467,0.01976 1.0117475,0.01023 1.0643564,-0.01102 z M 4.2164046,11.764095 C 6.5244418,10.993856 9.5114648,9.2875287 11.721234,7.4769844 12.27349,7.0245008 13.100573,6.2748434 13.190161,6.1455675 L 13.24055,6.0728558 13.16834,5.8285071 C 12.65113,4.0783396 11.529359,2.6587648 10.118812,1.9693991 9.678495,1.7542066 9.2844396,1.6269742 8.7920792,1.5410247 8.5148725,1.4926337 7.7942444,1.4930545 7.4752475,1.5417936 5.4324644,1.8539077 3.7111507,3.5684554 3.0613521,5.9383396 2.9667776,6.2832628 2.8942713,6.6278655 2.8388038,6.9960513 2.7869135,7.3404929 2.7661796,8.3051711 2.800356,8.784902 c 0.055118,0.773682 0.2660971,1.619434 0.5995004,2.403217 0.1938208,0.455644 0.3372499,0.70297 0.4076658,0.70297 0.015588,0 0.1995849,-0.05715 0.4088824,-0.126994 z M 14.182225,5.0346535 C 14.27355,4.938745 14.524987,4.5458194 14.660574,4.2871287 14.796971,4.0268939 14.90099,3.7356267 14.90099,3.6139349 14.90099,3.405736 14.630541,3.3171608 14,3.3188505 c -0.360518,9.659e-4 -0.637238,0.023338 -0.667898,0.053998 -0.01709,0.017089 0.01828,0.1049584 0.142761,0.3546376 0.223984,0.4492745 0.298567,0.6124771 0.449999,0.984687 0.144721,0.3557172 0.159271,0.3868372 0.180861,0.3868372 0.0084,0 0.0428,-0.02896 0.0765,-0.064356 z"
       id="path12" /><path
       style="fill:#1a1a1a;stroke-width:0.019802"
       d="M 7.5346535,14.573865 C 6.7922836,14.460081 6.0329166,14.140467 5.4138787,13.681239 5.0883402,13.439742 4.658803,13.057326 4.6844033,13.03179 c 0.00477,-0.0048 0.1646066,-0.0685 0.3552007,-0.141652 2.7243126,-1.045654 5.460394,-2.704651 7.881188,-4.7786861 0.234158,-0.2006171 0.442546,-0.3790515 0.463083,-0.396521 0.0365,-0.031051 0.03708,-0.01778 0.02571,0.5919998 -0.0073,0.3934205 -0.02259,0.6968868 -0.04132,0.8217822 -0.248665,1.6585021 -0.900797,3.0252081 -1.924838,4.0339801 -0.302193,0.297686 -0.490429,0.45243 -0.810718,0.666468 -0.550873,0.368129 -1.1856265,0.622346 -1.8109318,0.725272 -0.2739497,0.04509 -1.0438717,0.05672 -1.2871287,0.01943 z"
       id="path13" /><path
       style="fill:#1a1a1a;stroke-width:0.019802"
       d="M 3.7669181,11.766529 C 3.6404595,11.573529 3.3232795,10.843732 3.2082752,10.481153 3.1192157,10.200371 2.9975951,9.7078822 2.9280802,9.3465347 2.8769674,9.0808432 2.87439,9.0364113 2.8661434,8.2787962 2.854516,7.21058 2.8883789,6.869575 3.0786708,6.1386139 3.5358396,4.3825081 4.4939925,3.0188663 5.8328719,2.218839 6.3748774,1.8949718 6.9310554,1.6924586 7.5173929,1.6054784 c 0.2676994,-0.039712 0.9173501,-0.041114 1.2065948,-0.0026 0.4612062,0.061405 0.8854254,0.194962 1.3552203,0.4266634 0.488968,0.2411574 0.876683,0.5175566 1.30132,0.9276999 0.746349,0.7208765 1.291841,1.6048699 1.63881,2.6557671 0.168801,0.5112634 0.184147,0.4271886 -0.134469,0.7367351 -1.89685,1.8428543 -4.9549761,3.8324031 -7.5581363,4.9171551 -0.5620671,0.234217 -1.4142697,0.544985 -1.4944821,0.544985 -0.019589,0 -0.048989,-0.02041 -0.065333,-0.04535 z"
       id="path14" /><path
       style="fill:#00ff00;stroke-width:0.019802"
       d="M 7.6732673,15.936849 C 6.8281244,15.873052 5.8678986,15.528518 5.0884277,15.009397 4.600039,14.684134 4.2249156,14.34523 3.6977238,13.752971 3.4370923,13.460172 3.3607168,13.385833 3.315185,13.380633 c -0.03129,-0.0036 -0.2419868,0.01997 -0.4682159,0.05232 -0.4952097,0.07081 -0.835835,0.08882 -1.1935038,0.06312 C 1.3287399,13.472742 1.1265745,13.422444 0.89011794,13.306155 0.56596883,13.146739 0.34722129,12.92315 0.20003305,12.600798 0.09995221,12.381613 0.08157701,12.275818 0.0819258,11.920792 0.08239442,11.443788 0.14159034,11.20628 0.38315115,10.712204 0.63124935,10.204757 0.95069303,9.7358545 1.4731704,9.1121947 L 1.708879,8.830839 1.7314753,8.1183897 C 1.7694766,6.9202317 1.812566,6.5585345 2.0121499,5.7623762 2.5479564,3.6249945 3.7914947,1.8804155 5.4633879,0.92058115 6.0972519,0.55667962 6.8998949,0.2984861 7.6214545,0.22637608 c 0.2973013,-0.0297112 1.0190344,-0.0130987 1.2894366,0.0296797 0.5416778,0.0856949 1.0972529,0.26617116 1.6138609,0.52425637 0.608634,0.30405845 0.900461,0.51434845 1.632272,1.17621035 0.119036,0.1076585 0.23692,0.2091686 0.261964,0.2255781 0.04974,0.032592 0.0025,0.038295 0.699824,-0.084399 0.514484,-0.090518 1.290127,-0.098925 1.614985,-0.017504 0.327234,0.082016 0.567485,0.2126592 0.781116,0.4247535 0.2762,0.2742121 0.418423,0.6473327 0.418911,1.0990099 1.48e-4,0.136898 -0.01295,0.3047733 -0.03089,0.396039 -0.118165,0.6008988 -0.501301,1.3139103 -1.159824,2.1584158 -0.144373,0.1851486 -0.27122,0.3589109 -0.281882,0.3861387 -0.02004,0.051177 -0.01613,0.151332 0.02437,0.6237623 0.03406,0.3973672 0.01462,1.8402072 -0.02895,2.1485149 -0.165118,1.1684663 -0.558813,2.3514783 -1.091292,3.2792113 -1.113079,1.939309 -2.863278,3.164833 -4.7613876,3.334019 -0.2107527,0.01879 -0.7223317,0.02252 -0.9306931,0.0068 z m 1.1683169,-1.321186 c 0.4723663,-0.07418 0.9553336,-0.245175 1.4704658,-0.520609 1.632966,-0.873125 2.8082,-2.743901 3.113668,-4.9564401 0.03294,-0.2385553 0.06447,-1.4068705 0.04005,-1.4838084 -0.0071,-0.022519 -0.02378,-0.040944 -0.03696,-0.040944 -0.03002,0 -0.211828,0.1468869 -0.63934,0.5165453 -1.851491,1.6009373 -4.284946,3.1562072 -6.5446544,4.1828212 -0.3462491,0.157306 -0.706997,0.308289 -1.3436493,0.562357 -0.2022913,0.08073 -0.2889196,0.124873 -0.2936196,0.149626 -0.011556,0.06086 0.4914844,0.523138 0.8379979,0.770089 0.5573619,0.397216 1.2811196,0.696878 2,0.828073 0.1915689,0.03496 0.2774873,0.03867 0.7128712,0.03079 0.2955897,-0.0053 0.5708444,-0.02086 0.6831684,-0.0385 z M 2.5046909,12.191602 c 0.056459,-0.0085 0.090975,-0.02445 0.094682,-0.04373 0.00321,-0.01669 -0.078172,-0.248374 -0.1808436,-0.514852 C 2.3158572,11.366543 2.1812931,10.98812 2.119498,10.79208 1.9874096,10.373042 1.9705505,10.326734 1.9500838,10.326734 c -0.00847,0 -0.073174,0.07797 -0.1437752,0.173267 -0.4360092,0.588518 -0.7077721,1.124583 -0.7069955,1.394581 4.359e-4,0.151517 0.021662,0.172263 0.2617653,0.255838 0.1620621,0.05641 0.168062,0.05696 0.6092186,0.05577 0.2450495,-6.61e-4 0.4855268,-0.0072 0.5343939,-0.01459 z m 1.7428339,-0.430593 c 1.9953275,-0.671975 4.5345594,-2.0557189 6.6131342,-3.6038009 0.64789,-0.4825354 1.2184,-0.9541428 1.83241,-1.5147451 0.399121,-0.3644044 0.544555,-0.5204258 0.544555,-0.5841965 0,-0.08436 -0.247603,-0.7990815 -0.383768,-1.1077715 C 12.620908,4.4223962 12.313944,3.910596 11.969041,3.4752475 11.770842,3.2250735 11.291909,2.7417968 11.059406,2.5573632 10.324513,1.9744071 9.4226362,1.5912531 8.5988374,1.5120135 8.316981,1.4849024 7.6647766,1.5027956 7.4161176,1.5444614 5.5173065,1.8626305 3.8937646,3.3918931 3.1765954,5.5377937 2.9886477,6.1001677 2.8367358,6.8178812 2.8021382,7.3069307 c -0.029913,0.4228243 -0.024473,1.3594129 0.00977,1.6820948 0.077574,0.7310264 0.2861967,1.5144605 0.59476,2.2334855 0.1993323,0.464491 0.3250903,0.668598 0.4119252,0.668559 0.023537,-1.1e-5 0.2165566,-0.05854 0.4289329,-0.130061 z M 14.149801,5.0785198 c 0.05695,-0.03048 0.400493,-0.5598453 0.531396,-0.8188329 0.06281,-0.1242661 0.137958,-0.2978245 0.166996,-0.3856857 0.10313,-0.3120376 0.06072,-0.4233584 -0.191498,-0.5026667 -0.132225,-0.041577 -0.177427,-0.044602 -0.666596,-0.044602 -0.288614,0 -0.558994,0.00724 -0.600845,0.016093 -0.07016,0.014838 -0.07509,0.020243 -0.06328,0.069307 0.007,0.029268 0.105192,0.244798 0.218102,0.4789564 0.192704,0.3996368 0.272009,0.5780127 0.455598,1.0247525 0.0414,0.1007426 0.0835,0.1831683 0.09356,0.1831683 0.01006,0 0.03551,-0.00922 0.05657,-0.02049 z"
       id="path15" /></g></svg>
